<svg width="37" height="38" viewBox="0 0 37 38" fill="none" xmlns="http://www.w3.org/2000/svg">
<path d="M13.6414 34.1026C14.1582 34.1026 14.6539 34.3079 15.0193 34.6734C15.3848 35.0388 15.5901 35.5345 15.5901 36.0513C15.5901 36.5681 15.3848 37.0638 15.0193 37.4292C14.6539 37.7947 14.1582 38 13.6414 38C13.1246 38 12.6289 37.7947 12.2634 37.4292C11.898 37.0638 11.6927 36.5681 11.6927 36.0513C11.6927 35.5345 11.898 35.0388 12.2634 34.6734C12.6289 34.3079 13.1246 34.1026 13.6414 34.1026ZM27.2823 34.1026C27.7991 34.1026 28.2948 34.3079 28.6602 34.6734C29.0257 35.0388 29.231 35.5345 29.231 36.0513C29.231 36.5681 29.0257 37.0638 28.6602 37.4292C28.2948 37.7947 27.7991 38 27.2823 38C26.7655 38 26.2698 37.7947 25.9043 37.4292C25.5389 37.0638 25.3336 36.5681 25.3336 36.0513C25.3336 35.5345 25.5389 35.0388 25.9043 34.6734C26.2698 34.3079 26.7655 34.1026 27.2823 34.1026ZM2.9138 0.255647L3.11841 0.392055L6.44679 2.88639C7.0132 3.31139 7.45312 3.88268 7.71929 4.53889L7.83621 4.87211H32.8692C33.3975 4.87198 33.9203 4.97926 34.4059 5.18743C34.8914 5.3956 35.3296 5.70031 35.6938 6.08306C36.0579 6.46581 36.3405 6.9186 36.5242 7.41391C36.708 7.90923 36.7891 8.43674 36.7627 8.96438L36.7374 9.25279L35.8468 16.3753C35.5795 18.5187 34.6076 20.5126 33.0838 22.0434C31.5599 23.5743 29.5706 24.5555 27.4284 24.8326L26.988 24.8775L12.7372 26.0662L13.2439 28.2565H30.2053C30.702 28.2571 31.1797 28.4472 31.5409 28.7882C31.9021 29.1292 32.1194 29.5952 32.1485 30.091C32.1776 30.5868 32.0163 31.0751 31.6975 31.4559C31.3787 31.8368 30.9265 32.0816 30.4333 32.1403L30.2053 32.1539H13.2439C12.4168 32.154 11.6112 31.8911 10.9435 31.4031C10.2758 30.9151 9.78063 30.2274 9.52963 29.4394L9.44584 29.1334L4.1064 6.00236L0.779973 3.50803C0.399776 3.22306 0.136787 2.80901 0.0404667 2.34374C-0.055854 1.87848 0.0211298 1.39405 0.25694 0.981557C0.49275 0.569068 0.871139 0.256944 1.32095 0.103883C1.77075 -0.049178 2.26098 -0.0326296 2.69944 0.150417L2.9138 0.255647ZM32.8692 8.76951H8.74431L11.8525 22.2272L26.6626 20.9937C27.9992 20.8825 29.257 20.315 30.2249 19.3865C31.1928 18.458 31.812 17.2248 31.9786 15.894L32.8692 8.76951Z" fill="#BF4413"/>
</svg>
