<svg width="37" height="38" viewBox="0 0 37 38" fill="none" xmlns="http://www.w3.org/2000/svg">
<path d="M13.7273 34.1026C14.2474 34.1026 14.7462 34.3079 15.114 34.6733C15.4817 35.0388 15.6884 35.5345 15.6884 36.0513C15.6884 36.5681 15.4817 37.0638 15.114 37.4292C14.7462 37.7947 14.2474 38 13.7273 38C13.2072 38 12.7084 37.7947 12.3406 37.4292C11.9729 37.0638 11.7663 36.5681 11.7663 36.0513C11.7663 35.5345 11.9729 35.0388 12.3406 34.6733C12.7084 34.3079 13.2072 34.1026 13.7273 34.1026ZM27.4546 34.1026C27.9747 34.1026 28.4735 34.3079 28.8413 34.6733C29.2091 35.0388 29.4157 35.5345 29.4157 36.0513C29.4157 36.5681 29.2091 37.0638 28.8413 37.4292C28.4735 37.7947 27.9747 38 27.4546 38C26.9345 38 26.4357 37.7947 26.0679 37.4292C25.7002 37.0638 25.4936 36.5681 25.4936 36.0513C25.4936 35.5345 25.7002 35.0388 26.0679 34.6733C26.4357 34.3079 26.9345 34.1026 27.4546 34.1026ZM0.392217 0.779635C0.678706 0.399977 1.09476 0.137245 1.56232 0.0407327C2.02989 -0.0557794 2.51682 0.0205614 2.93177 0.255432L3.13768 0.391841L6.48714 2.88619C7.05714 3.31119 7.49985 3.88249 7.7677 4.5387L7.88536 4.87193H33.0769C33.6086 4.87179 34.1347 4.97907 34.6233 5.18724C35.112 5.39541 35.5529 5.70013 35.9194 6.08288C36.2859 6.46563 36.5702 6.91842 36.7551 7.41374C36.94 7.90906 37.0217 8.43657 36.9951 8.96422L36.9696 9.25263L36.0734 16.3752C35.8044 18.5186 34.8264 20.5125 33.2929 22.0434C31.7594 23.5743 29.7574 24.5554 27.6017 24.8326L27.1585 24.8774L12.8174 26.0661L13.3273 28.2565H30.3962C30.896 28.257 31.3768 28.4472 31.7402 28.7882C32.1037 29.1291 32.3224 29.5951 32.3517 30.091C32.381 30.5868 32.2186 31.075 31.8978 31.4559C31.577 31.8368 31.122 32.0816 30.6256 32.1402L30.3962 32.1539H13.3273C12.495 32.154 11.6843 31.8911 11.0123 31.4031C10.3404 30.9151 9.8421 30.2273 9.58951 29.4393L9.50519 29.1334L4.13193 6.00218L0.784425 3.50783C0.368345 3.19773 0.0932709 2.73609 0.0197175 2.22445C-0.0538359 1.71281 0.0801561 1.1931 0.392217 0.779635Z" fill="#BF4413"/>
</svg>
