<svg width="24" height="24" viewBox="0 0 24 24" fill="none" xmlns="http://www.w3.org/2000/svg">
<path opacity="0.987" fill-rule="evenodd" clip-rule="evenodd" d="M10.2199 0.104187C11.4633 -0.0347289 12.199 -0.0347289 13.535 0.104187C15.8999 0.454212 18.0922 1.54734 19.7948 3.2255C18.6443 4.31305 17.5088 5.41648 16.3888 6.53547C14.2439 4.71756 11.8498 4.29795 9.20636 5.27665C7.26725 6.16846 5.91697 7.61364 5.15551 9.6122C3.91116 8.6858 2.68303 7.73783 1.47167 6.76871C1.38748 6.7244 1.29133 6.70817 1.19727 6.7224C3.12151 3.01227 6.12849 0.805625 10.2182 0.102472" fill="#F44336"/>
<path opacity="0.997" fill-rule="evenodd" clip-rule="evenodd" d="M1.19408 6.72227C1.29126 6.7074 1.3833 6.72284 1.47019 6.76857C2.68156 7.73769 3.90969 8.68566 5.15403 9.61206C4.95822 10.3908 4.83479 11.1859 4.78531 11.9873C4.82761 12.7625 4.95052 13.5234 5.15403 14.27L1.28669 17.3485C-0.39745 13.8293 -0.42832 10.2872 1.19408 6.72227Z" fill="#FFC107"/>
<path opacity="0.999" fill-rule="evenodd" clip-rule="evenodd" d="M19.6117 21.0772C18.4075 20.0152 17.1469 19.0191 15.8353 18.0931C17.1501 17.1647 17.9482 15.891 18.2294 14.2721H11.7861V9.7976C15.502 9.76673 19.2161 9.79818 22.9285 9.89193C23.6328 13.7164 22.8194 17.1647 20.4881 20.2369C20.2109 20.5315 19.9172 20.812 19.6117 21.0772Z" fill="#448AFF"/>
<path opacity="0.993" fill-rule="evenodd" clip-rule="evenodd" d="M5.15397 14.272C6.56027 17.7672 9.1385 19.3987 12.8887 19.1666C13.9414 19.0447 14.9507 18.677 15.835 18.093C17.1476 19.0214 18.4064 20.0161 19.6115 21.0771C17.7021 22.7929 15.2676 23.811 12.7051 23.9652C12.123 24.0117 11.538 24.0117 10.9558 23.9652C6.59057 23.4507 3.3675 21.2452 1.28662 17.3487L5.15397 14.272Z" fill="#43A047"/>
</svg>
