<svg width="139" height="130" viewBox="0 0 139 130" fill="none" xmlns="http://www.w3.org/2000/svg">
<path d="M69.4993 94.422C53.1173 94.422 39.7139 81.0185 39.7139 64.6365C39.7139 48.2545 53.1173 34.8511 69.4993 34.8511C85.8813 34.8511 99.2848 48.2545 99.2848 64.6365C99.2848 81.0185 85.8813 94.422 69.4993 94.422ZM69.4993 44.7796C58.578 44.7796 49.6424 53.7152 49.6424 64.6365C49.6424 75.5579 58.578 84.4935 69.4993 84.4935C80.4207 84.4935 89.3563 75.5579 89.3563 64.6365C89.3563 53.7152 80.4207 44.7796 69.4993 44.7796Z" fill="#8F8F8F"/>
<path d="M69.5006 114.279C37.8287 114.279 10.029 95.0177 0.299066 66.2251C-0.0996885 65.2036 -0.0996885 64.0695 0.299066 63.048C10.029 34.3547 37.928 14.9941 69.5006 14.9941C101.073 14.9941 128.972 34.2554 138.702 63.048C139.099 64.0409 139.099 65.2323 138.702 66.2251C128.972 94.9184 101.073 114.279 69.5006 114.279ZM10.2275 64.6366C19.0639 88.4649 42.6937 104.351 69.5006 104.351C96.3075 104.351 119.838 88.4649 128.774 64.6366C119.937 40.8082 96.3075 24.9226 69.5006 24.9226C42.6937 24.9226 19.1632 40.8082 10.2275 64.6366Z" fill="#8F8F8F"/>
<path d="M129.07 129.17C128.419 129.178 127.774 129.049 127.175 128.793C126.577 128.536 126.039 128.157 125.595 127.68L6.45363 8.5385C4.46793 6.5528 4.46793 3.47497 6.45363 1.48927C8.43932 -0.496424 11.5172 -0.496424 13.5029 1.48927L132.545 120.73C134.531 122.716 134.531 125.794 132.545 127.78C131.553 128.772 130.262 129.269 129.07 129.269V129.17Z" fill="#8F8F8F"/>
</svg>
