<svg width="41" height="38" viewBox="0 0 41 38" fill="none" xmlns="http://www.w3.org/2000/svg">
<path d="M17.9828 0.854869C18.6553 0.337197 19.474 0.0396892 20.3252 0.00369955C21.1765 -0.0322901 22.0179 0.195026 22.7325 0.654052L23.0175 0.856898L40.2044 14.0824C41.6824 15.2204 40.9629 17.5146 39.1815 17.7032L38.9437 17.7154H36.8998V33.9431C36.9002 34.9666 36.5095 35.9524 35.8062 36.7029C35.1029 37.4534 34.1389 37.9131 33.1074 37.9899L32.7999 38H8.20035C7.16634 37.9998 6.17059 37.613 5.41258 36.9171C4.65456 36.2212 4.19027 35.2676 4.11272 34.2474L4.10042 33.9431V17.7154H2.05661C0.184994 17.7154 -0.673941 15.4679 0.615486 14.2366L0.795883 14.0824L17.9828 0.854869ZM20.5001 4.05781L7.43161 14.1149C7.90106 14.4902 8.20035 15.0642 8.20035 15.7072V33.9431H14.3502V23.8008C14.3502 22.1868 14.9982 20.639 16.1515 19.4978C17.3048 18.3566 18.8691 17.7154 20.5001 17.7154C22.1312 17.7154 23.6954 18.3566 24.8488 19.4978C26.0021 20.639 26.65 22.1868 26.65 23.8008V33.9431H32.7999V15.7072C32.7999 15.0642 33.0992 14.4902 33.5687 14.1149L20.5001 4.05781ZM20.5001 21.7723C19.9564 21.7723 19.435 21.986 19.0506 22.3665C18.6661 22.7469 18.4502 23.2628 18.4502 23.8008V33.9431H22.5501V23.8008C22.5501 23.2628 22.3341 22.7469 21.9497 22.3665C21.5652 21.986 21.0438 21.7723 20.5001 21.7723Z" fill="#BF4413"/>
</svg>
