<svg width="41" height="38" viewBox="0 0 41 38" fill="none" xmlns="http://www.w3.org/2000/svg">
<path d="M22.7758 0.85477C22.0636 0.300778 21.1871 0 20.2848 0C19.3826 0 18.5061 0.300778 17.7939 0.85477L0.787254 14.0804C-0.73815 15.2711 0.101634 17.7154 2.03476 17.7154H4.05714V33.9431C4.05714 35.019 4.48456 36.0509 5.24538 36.8118C6.00621 37.5726 7.0381 38 8.11407 38H16.2279V25.8292C16.2279 24.7533 16.6553 23.7214 17.4162 22.9605C18.177 22.1997 19.2089 21.7723 20.2848 21.7723C21.3608 21.7723 22.3927 22.1997 23.1535 22.9605C23.9144 23.7214 24.3418 24.7533 24.3418 25.8292V38H32.4556C33.5316 38 34.5635 37.5726 35.3243 36.8118C36.0851 36.0509 36.5126 35.019 36.5126 33.9431V17.7154H38.5349C40.466 17.7154 41.3099 15.2711 39.7824 14.0824L22.7758 0.85477Z" fill="#BF4413"/>
</svg>
