<svg width="34" height="38" viewBox="0 0 34 38" fill="none" xmlns="http://www.w3.org/2000/svg">
<path d="M17 0C21.5087 0 25.8327 1.78669 29.0208 4.96701C32.2089 8.14734 34 12.4608 34 16.9584C34 22.7507 30.8342 27.4915 27.4984 30.8926C25.8318 32.5735 24.0133 34.0975 22.066 35.445L21.2613 35.9915L20.8836 36.2421L20.1714 36.6943L19.5368 37.0806L18.751 37.5366C18.2176 37.8403 17.6141 38 17 38C16.3859 38 15.7824 37.8403 15.249 37.5366L14.4632 37.0806L13.481 36.4776L13.1183 36.2421L12.3439 35.7277C10.2431 34.3098 8.28637 32.6904 6.50156 30.8926C3.16578 27.4896 0 22.7507 0 16.9584C0 12.4608 1.79107 8.14734 4.97918 4.96701C8.1673 1.78669 12.4913 0 17 0ZM17 11.3056C16.2558 11.3056 15.519 11.4518 14.8315 11.7359C14.1439 12.02 13.5193 12.4364 12.9931 12.9613C12.4669 13.4862 12.0495 14.1094 11.7647 14.7952C11.4799 15.481 11.3333 16.2161 11.3333 16.9584C11.3333 17.7008 11.4799 18.4359 11.7647 19.1217C12.0495 19.8075 12.4669 20.4307 12.9931 20.9556C13.5193 21.4805 14.1439 21.8969 14.8315 22.181C15.519 22.465 16.2558 22.6113 17 22.6113C18.5029 22.6113 19.9442 22.0157 21.0069 20.9556C22.0696 19.8955 22.6667 18.4577 22.6667 16.9584C22.6667 15.4592 22.0696 14.0214 21.0069 12.9613C19.9442 11.9012 18.5029 11.3056 17 11.3056Z" fill="#BF4413"/>
</svg>
