<svg width="34" height="38" viewBox="0 0 34 38" fill="none" xmlns="http://www.w3.org/2000/svg">
<path fill-rule="evenodd" clip-rule="evenodd" d="M16.9584 0C21.4561 0 25.7696 1.78669 28.9499 4.96701C32.1302 8.14734 33.9169 12.4608 33.9169 16.9584C33.9169 22.7507 30.7589 27.4915 27.4312 30.8926C25.7687 32.5735 23.9546 34.0975 22.0121 35.445L21.2094 35.9915L20.8325 36.2421L20.1221 36.6943L19.489 37.0806L18.7052 37.5366C18.1731 37.8403 17.5711 38 16.9584 38C16.3458 38 15.7438 37.8403 15.2117 37.5366L14.4279 37.0806L13.448 36.4776L13.0863 36.2421L12.3137 35.7277C10.2181 34.3098 8.26612 32.6904 6.48566 30.8926C3.15804 27.4896 0 22.7507 0 16.9584C0 12.4608 1.78669 8.14734 4.96701 4.96701C8.14734 1.78669 12.4608 0 16.9584 0ZM16.9584 3.76854C13.4603 3.76854 10.1054 5.15819 7.63178 7.63178C5.15819 10.1054 3.76854 13.4603 3.76854 16.9584C3.76854 21.3337 6.16534 25.1739 9.17829 28.2565C10.4738 29.568 11.874 30.7716 13.3651 31.8555L14.2281 32.4698C14.507 32.6645 14.7752 32.8454 15.0327 33.0124L15.7676 33.4835L16.4139 33.8773L16.9584 34.1958L17.8158 33.6889L18.5073 33.2555C18.8754 33.0219 19.2692 32.76 19.6888 32.4698L20.5518 31.8555C22.0429 30.7716 23.4431 29.568 24.7386 28.2565C27.7516 25.1758 30.1483 21.3337 30.1483 16.9584C30.1483 13.4603 28.7587 10.1054 26.2851 7.63178C23.8115 5.15819 20.4566 3.76854 16.9584 3.76854ZM16.9584 9.42136C18.9574 9.42136 20.8745 10.2154 22.288 11.6289C23.7015 13.0424 24.4955 14.9595 24.4955 16.9584C24.4955 18.9574 23.7015 20.8745 22.288 22.288C20.8745 23.7015 18.9574 24.4955 16.9584 24.4955C14.9595 24.4955 13.0424 23.7015 11.6289 22.288C10.2154 20.8745 9.42136 18.9574 9.42136 16.9584C9.42136 14.9595 10.2154 13.0424 11.6289 11.6289C13.0424 10.2154 14.9595 9.42136 16.9584 9.42136ZM16.9584 13.1899C15.959 13.1899 15.0004 13.5869 14.2937 14.2937C13.5869 15.0004 13.1899 15.959 13.1899 16.9584C13.1899 17.9579 13.5869 18.9165 14.2937 19.6232C15.0004 20.3299 15.959 20.727 16.9584 20.727C17.9579 20.727 18.9165 20.3299 19.6232 19.6232C20.3299 18.9165 20.727 17.9579 20.727 16.9584C20.727 15.959 20.3299 15.0004 19.6232 14.2937C18.9165 13.5869 17.9579 13.1899 16.9584 13.1899Z" fill="#BF4413"/>
</svg>
