<svg width="242" height="46" viewBox="0 0 242 46" fill="none" xmlns="http://www.w3.org/2000/svg">
<path d="M36.6842 7.83333H2.15789V3.5H36.6842V7.83333ZM21.5789 28.4167C21.5789 30.8867 22.5068 33.53 23.7368 36V38.1667H2.15789V25.1667H0V20.8333L2.15789 10H36.6842L38.1947 17.5833C36.6842 16.89 35.1305 16.5 33.4474 16.5C26.9737 16.5 21.5789 21.9167 21.5789 28.4167ZM19.4211 25.1667H6.47368V33.8333H19.4211V25.1667ZM41 28.4167C41 34.05 33.4474 42.5 33.4474 42.5C33.4474 42.5 25.8947 34.05 25.8947 28.4167C25.8947 24.3 29.3474 20.8333 33.4474 20.8333C37.5474 20.8333 41 24.3 41 28.4167ZM36.0368 28.6333C36.0368 27.3333 34.7421 26.0333 33.4474 26.0333C32.1526 26.0333 30.8579 27.1167 30.8579 28.6333C30.8579 29.9333 31.9368 31.2333 33.4474 31.2333C34.9579 31.2333 36.2526 29.9333 36.0368 28.6333Z" fill="#FE5A19"/>
<path d="M75.3892 11.1514C76.2778 11.1514 77.0298 11.5729 77.645 12.416C78.0096 12.849 78.4368 14.4953 78.9268 17.355C79.7585 22.0034 80.5959 27.1873 81.439 32.9067V33.0093C81.439 34.16 80.875 35.0088 79.7471 35.5557C79.3825 35.681 79.0464 35.7437 78.7388 35.7437C77.8045 35.7437 77.0412 35.2936 76.4487 34.3936C76.2323 34.1201 76.0272 33.1802 75.8335 31.5737C75.2069 27.5861 74.7397 24.658 74.4321 22.7896H74.3979C74.3068 23.006 73.6802 24.5612 72.5181 27.4551C71.9256 28.4121 71.1281 28.8906 70.1255 28.8906C68.9634 28.8906 68.0519 28.1785 67.3911 26.7544C65.9784 24.2251 65.2606 22.9548 65.2378 22.9434H65.2207C64.6624 29.9388 64.3491 33.6131 64.2808 33.9663C64.0301 34.741 63.6143 35.2993 63.0332 35.6411C62.5661 35.8804 62.1104 36 61.666 36C60.6634 36 59.8659 35.4987 59.2734 34.4961C59.0911 34.0973 59 33.6929 59 33.2827C59.0342 32.6903 59.5754 26.0879 60.6235 13.4756C60.84 12.6781 61.1989 12.1084 61.7002 11.7666C62.1901 11.4134 62.7199 11.2368 63.2896 11.2368C64.4631 11.2368 65.3631 11.9204 65.9897 13.2876L69.7324 19.9355H69.7495C71.1851 16.3581 72.2218 13.9598 72.8599 12.7407C73.4979 11.6812 74.341 11.1514 75.3892 11.1514ZM95.333 16.791H95.4697C96.3926 16.791 97.1616 17.2695 97.7769 18.2266C97.9819 18.6481 98.0845 19.0412 98.0845 19.4058V19.5425C98.0845 19.9868 97.8338 20.7559 97.3325 21.8496C92.7069 33.2087 90.3029 39.1047 90.1206 39.5376C89.4826 40.4832 88.7135 40.9561 87.8135 40.9561H87.6597C86.7368 40.9561 85.9678 40.4775 85.3525 39.5205C85.1475 39.099 85.0449 38.7059 85.0449 38.3413V38.2217C85.0449 37.7773 85.3184 36.957 85.8652 35.7607C86.7425 33.596 87.2039 32.4453 87.2495 32.3086C83.5125 25.0739 81.5358 21.2173 81.3193 20.7388C81.2282 20.4198 81.1826 20.1577 81.1826 19.9526V19.7817C81.1826 18.7905 81.7124 17.9987 82.772 17.4062C83.1479 17.2695 83.4784 17.2012 83.7632 17.2012H83.9341C84.8911 17.2012 85.6772 17.7082 86.2925 18.7222C88.6851 23.382 89.8927 25.7176 89.9155 25.729H89.9497C91.8866 20.978 92.9404 18.4259 93.1113 18.0728C93.7266 17.2183 94.4671 16.791 95.333 16.791ZM106.356 11.2026L107.091 11.1685H107.433C109.187 11.1685 111.352 11.6641 113.927 12.6553C115.203 13.1794 115.864 14.0225 115.909 15.1846V15.2871C115.909 16.1416 115.522 16.8708 114.747 17.4746C114.291 17.7822 113.813 17.9417 113.312 17.9531H113.243C112.787 17.9531 112.087 17.7424 111.141 17.3208C109.603 16.7967 108.316 16.5347 107.279 16.5347H107.04L106.852 16.5518C105.792 16.5859 105.171 16.9619 104.989 17.6797C104.909 17.9987 104.869 18.2323 104.869 18.3804L104.886 18.6025C104.909 19.2633 106.641 20.2375 110.082 21.5249C111.369 22.0718 112.497 22.6756 113.465 23.3364C115.254 24.715 116.188 26.3271 116.268 28.1729V28.6172C116.268 29.7565 115.926 30.987 115.243 32.3086C115.049 32.7415 114.548 33.3454 113.739 34.1201C112.873 34.8835 111.705 35.436 110.235 35.7778C109.609 35.8918 109.125 35.9544 108.783 35.9658L108.065 36H107.655C105.991 36 103.969 35.6354 101.588 34.9062C101.018 34.7354 100.551 34.4676 100.187 34.103C99.708 33.5789 99.4574 32.9865 99.4346 32.3257V32.189C99.4346 31.3459 99.8162 30.6281 100.58 30.0356C101.035 29.7394 101.514 29.5799 102.015 29.5571H102.049C102.437 29.5571 103.137 29.728 104.151 30.0698C105.553 30.4458 106.783 30.6338 107.843 30.6338H108.099L108.27 30.6167C109.489 30.5711 110.27 30.2407 110.611 29.6255C110.805 29.2039 110.902 28.828 110.902 28.4976V28.4463C110.879 27.8197 109.307 26.9196 106.185 25.7461C104.727 25.1536 103.473 24.5042 102.425 23.7979C101.434 23.0117 100.836 22.4079 100.631 21.9863C99.9245 20.9723 99.5485 19.9071 99.5029 18.7905V18.4829C99.5029 16.8765 99.9928 15.3612 100.973 13.937C101.588 13.1965 102.083 12.7179 102.459 12.5015C103.701 11.6812 105 11.2482 106.356 11.2026ZM126.505 16.5518H126.932C130.521 16.5518 133.215 17.805 135.016 20.3115C135.973 21.7699 136.451 23.4333 136.451 25.3018C136.451 26.8057 135.75 27.7798 134.349 28.2241C134.349 28.2925 131.005 28.4178 124.317 28.6001C124.579 29.1584 125.092 29.6938 125.855 30.2065C126.311 30.48 126.841 30.6167 127.445 30.6167H127.752C129.245 30.6167 130.436 30.2407 131.324 29.4888C131.791 29.2381 132.224 29.1128 132.623 29.1128H132.794C133.785 29.1128 134.577 29.6426 135.169 30.7021C135.306 31.0895 135.375 31.4256 135.375 31.7104V31.8813C135.375 33.3966 133.996 34.6043 131.239 35.5044C130.099 35.8348 128.909 36 127.667 36C125.183 36 123.115 35.1968 121.463 33.5903C120.677 32.8156 120.125 32.1491 119.806 31.5908C118.769 29.9844 118.137 28.2127 117.909 26.2759C117.875 25.9113 117.857 25.6208 117.857 25.4043V24.7207C117.857 22.7952 118.478 21.0236 119.72 19.4058C121.327 17.5031 123.588 16.5518 126.505 16.5518ZM123.634 23.251H123.651C124.186 23.251 126.391 23.1826 130.265 23.0459V22.9946C129.558 22.2769 128.373 21.918 126.71 21.918C125.092 21.918 124.084 22.311 123.685 23.0972C123.662 23.0972 123.645 23.1484 123.634 23.251ZM157.506 16.6372H157.967C159.152 16.6372 160.326 17.1157 161.488 18.0728C162.228 18.8133 162.77 19.4912 163.111 20.1064C163.476 20.7786 163.823 21.5591 164.154 22.4478C164.416 23.1769 164.706 24.3447 165.025 25.9512C165.447 28.4577 165.658 30.7477 165.658 32.8213V33.2827C165.658 34.2739 165.128 35.0658 164.068 35.6582C163.681 35.7949 163.345 35.8633 163.06 35.8633H162.889C161.898 35.8633 161.112 35.3392 160.531 34.291C160.371 33.8695 160.292 33.5106 160.292 33.2144V33.1973C160.292 30.0983 159.916 27.193 159.164 24.4814C158.822 23.4105 158.406 22.613 157.916 22.0889C157.825 22.0433 157.768 22.0205 157.745 22.0205H157.677C157.381 22.0205 157.005 22.6187 156.549 23.8149C156.321 24.396 156.093 25.3815 155.865 26.7715C155.649 28.5602 155.541 29.8932 155.541 30.7705C155.563 31.7959 155.575 32.6789 155.575 33.4194C155.575 34.3195 155.096 35.0771 154.139 35.6924C153.718 35.8975 153.325 36 152.96 36H152.806C151.872 36 151.097 35.5101 150.482 34.5303C150.288 34.2227 150.191 33.5675 150.191 32.5649C150.191 28.9533 149.662 26.0366 148.602 23.8149C148.112 22.8921 147.548 22.4307 146.91 22.4307H146.893C146.38 22.4307 145.947 22.8009 145.594 23.5415C145.355 23.9061 145.076 24.6466 144.757 25.7632C144.278 27.8481 144.039 30.0072 144.039 32.2402C144.039 32.3883 144.028 32.5023 144.005 32.582C144.028 32.6618 144.039 32.7757 144.039 32.9238V33.2656C144.039 34.1885 143.566 34.9575 142.621 35.5728C142.199 35.7664 141.806 35.8633 141.441 35.8633H141.253C140.376 35.8633 139.641 35.436 139.049 34.5815C138.764 34.2625 138.622 33.4365 138.622 32.1035C138.382 24.0371 138.263 19.8729 138.263 19.6108C138.263 19.0412 138.536 18.4658 139.083 17.8848C139.63 17.3721 140.228 17.1157 140.877 17.1157H141.014C141.8 17.1157 142.507 17.486 143.133 18.2266H143.185C144.301 17.4518 145.429 17.0645 146.568 17.0645H147.337C148.465 17.0645 149.679 17.5088 150.978 18.3975C151.479 18.819 151.969 19.3089 152.447 19.8672C152.732 19.457 152.983 19.1152 153.199 18.8418C154.088 17.8848 154.863 17.3037 155.523 17.0986C156.207 16.791 156.868 16.6372 157.506 16.6372ZM170.75 11.1514C171.764 11.1514 172.562 11.6527 173.143 12.6553C173.337 13.054 173.434 13.4642 173.434 13.8857V16.6372C178.059 16.6372 181.352 18.0443 183.312 20.8584C184.28 22.3395 184.764 24.0086 184.764 25.8657V26.1221C184.764 28.2412 184.046 30.1439 182.611 31.8301C181.711 32.7301 181.004 33.3226 180.492 33.6074C177.814 35.2025 174.579 36 170.785 36H170.75C169.611 36 168.768 35.4417 168.221 34.3252C168.073 33.9264 167.999 33.6302 167.999 33.4365C168.045 22.932 168.067 16.3638 168.067 13.7319C168.067 13.1053 168.335 12.5015 168.871 11.9204C169.429 11.4077 170.056 11.1514 170.75 11.1514ZM173.399 22.0205C173.388 24.6751 173.382 26.7202 173.382 28.1558V30.4458C173.758 30.4458 174.63 30.2464 175.997 29.8477C177.547 29.2894 178.549 28.5773 179.005 27.7114C179.278 27.2557 179.415 26.6632 179.415 25.9341C179.415 24.2935 178.731 23.2054 177.364 22.6699C176.316 22.2256 175.04 22.0034 173.536 22.0034L173.399 22.0205ZM196.129 16.1758C198.032 16.1758 200.042 16.5802 202.162 17.3892C203.198 17.9702 203.717 18.8019 203.717 19.8843L203.7 20.1406C204.155 20.6191 204.383 21.4053 204.383 22.499C204.406 22.499 204.417 22.8693 204.417 23.6099C204.417 24.339 204.412 25.0796 204.4 25.8315C204.492 30.1268 204.537 32.5592 204.537 33.1289C204.537 33.915 204.167 34.6157 203.426 35.231C202.925 35.5728 202.395 35.7437 201.837 35.7437C201.074 35.7437 200.396 35.4303 199.803 34.8037L199.769 34.7866C198.14 35.5955 196.585 36 195.104 36H194.642C192.865 36 191.218 35.4303 189.703 34.291C187.652 32.5592 186.627 30.1097 186.627 26.9424C186.627 23.3079 187.652 20.4881 189.703 18.4829C191.412 16.9448 193.554 16.1758 196.129 16.1758ZM191.993 26.8911C191.993 28.7026 192.472 29.8534 193.429 30.3433C193.816 30.5369 194.289 30.6338 194.847 30.6338H194.881C196.021 30.6338 197.018 30.2977 197.872 29.6255C198.054 29.4318 198.242 29.09 198.436 28.6001C198.823 27.3924 199.017 26.2987 199.017 25.3188C199.017 24.8517 199.006 23.7352 198.983 21.9692C197.935 21.6844 196.972 21.542 196.095 21.542C194.329 21.542 193.167 22.1857 192.608 23.4731C192.198 24.4871 191.993 25.6265 191.993 26.8911ZM210.604 11.1685C211.607 11.1685 212.404 11.6698 212.997 12.6724C213.179 13.1053 213.27 13.4813 213.27 13.8003C213.236 15.8739 213.219 17.7993 213.219 19.5767C216.557 17.0474 218.42 15.6517 218.807 15.3896C219.24 15.1162 219.707 14.9795 220.208 14.9795C221.109 14.9795 221.855 15.3896 222.447 16.21C222.732 16.6885 222.875 17.1727 222.875 17.6626C222.875 18.688 222.288 19.571 221.114 20.3115L215.44 24.6353V24.6694C219.337 28.7254 221.604 31.0895 222.242 31.7617C222.573 32.2972 222.738 32.827 222.738 33.3511C222.738 34.2853 222.288 35.0487 221.388 35.6411C220.955 35.8804 220.505 36 220.038 36C219.138 36 218.312 35.5215 217.56 34.5645C217.548 34.5645 216.061 33.0264 213.099 29.9502H213.048C213.025 31.7731 213.014 32.9295 213.014 33.4194C213.014 34.0461 212.74 34.6499 212.193 35.231C211.646 35.7437 211.02 36 210.313 36C209.311 36 208.513 35.4987 207.921 34.4961C207.739 34.0745 207.647 33.6986 207.647 33.3682L207.904 13.7832C207.904 12.9971 208.274 12.2964 209.015 11.6812C209.516 11.3394 210.046 11.1685 210.604 11.1685ZM231.676 17.0303H232.308C234.108 17.0303 235.783 17.6968 237.333 19.0298C238.187 19.8957 238.814 20.7331 239.212 21.542C239.999 23.137 240.392 24.846 240.392 26.6689C240.392 29.2438 239.64 31.4541 238.136 33.2998C237.27 34.2113 236.672 34.724 236.341 34.8379C235.122 35.6126 233.823 36 232.445 36H232.052C230.217 36 228.469 35.436 226.805 34.3081C226.566 34.2056 226.013 33.6929 225.147 32.77C223.712 30.9927 222.994 28.9077 222.994 26.5151C222.994 23.9631 223.837 21.7243 225.523 19.7988C226.401 18.9443 227.033 18.4316 227.42 18.2607C228.845 17.4404 230.263 17.0303 231.676 17.0303ZM228.36 26.5322C228.36 27.8538 228.81 28.9305 229.71 29.7622C230.451 30.3433 231.294 30.6338 232.24 30.6338C233.47 30.6338 234.319 29.8704 234.786 28.3438C234.934 27.7855 235.008 27.2614 235.008 26.7715V26.5322C235.008 25.0625 234.553 23.8662 233.641 22.9434C233.208 22.5788 232.667 22.3965 232.018 22.3965C230.423 22.3965 229.3 23.2054 228.651 24.8232C228.457 25.484 228.36 26.0537 228.36 26.5322Z" fill="#FE5A19"/>
</svg>
