<svg width="30" height="38" viewBox="0 0 30 38" fill="none" xmlns="http://www.w3.org/2000/svg">
<path fill-rule="evenodd" clip-rule="evenodd" d="M24.375 0C25.8668 0 27.2976 0.600531 28.3525 1.66948C29.4074 2.73843 30 4.18824 30 5.69997V36.0998C29.9998 36.4576 29.8998 36.8082 29.7117 37.111C29.5235 37.4138 29.2547 37.6566 28.9364 37.8115C28.618 37.9663 28.2629 38.0269 27.9121 37.9863C27.5612 37.9457 27.2288 37.8054 26.9531 37.5818L23.4375 34.7318L19.9219 37.5818C19.5617 37.8742 19.1078 38.0217 18.647 37.9961C18.1862 37.9705 17.7509 37.7736 17.4244 37.4431L15 34.9864L12.5756 37.4431C12.2494 37.7739 11.8142 37.9711 11.3534 37.9971C10.8926 38.023 10.4385 37.8758 10.0781 37.5837L6.5625 34.7318L3.04688 37.5818C2.7712 37.8054 2.43879 37.9457 2.08793 37.9863C1.73706 38.0269 1.382 37.9663 1.06363 37.8115C0.745256 37.6566 0.476514 37.4138 0.288342 37.111C0.10017 36.8082 0.000220575 36.4576 0 36.0998V5.69997C0 4.18824 0.592632 2.73843 1.64752 1.66948C2.70242 0.600531 4.13316 0 5.625 0H24.375ZM15 18.9999H9.375C8.87772 18.9999 8.40081 19.2001 8.04918 19.5564C7.69754 19.9127 7.5 20.396 7.5 20.8999C7.5 21.4038 7.69754 21.8871 8.04918 22.2434C8.40081 22.5997 8.87772 22.7999 9.375 22.7999H15C15.4973 22.7999 15.9742 22.5997 16.3258 22.2434C16.6775 21.8871 16.875 21.4038 16.875 20.8999C16.875 20.396 16.6775 19.9127 16.3258 19.5564C15.9742 19.2001 15.4973 18.9999 15 18.9999ZM20.625 11.3999H9.375C8.8971 11.4005 8.43744 11.5859 8.08993 11.9183C7.74243 12.2508 7.53331 12.7051 7.5053 13.1886C7.47729 13.672 7.63251 14.148 7.93925 14.5194C8.24598 14.8908 8.68107 15.1294 9.15563 15.1866L9.375 15.1999H20.625C21.1029 15.1994 21.5626 15.0139 21.9101 14.6815C22.2576 14.3491 22.4667 13.8947 22.4947 13.4113C22.5227 12.9278 22.3675 12.4518 22.0608 12.0804C21.754 11.7091 21.3189 11.4704 20.8444 11.4132L20.625 11.3999Z" fill="#BF4413"/>
</svg>
