<svg width="34" height="38" viewBox="0 0 34 38" fill="none" xmlns="http://www.w3.org/2000/svg">
<path fill-rule="evenodd" clip-rule="evenodd" d="M0 5.69997C0 4.18824 0.67165 2.73843 1.86719 1.66948C3.06274 0.600531 4.68425 0 6.375 0H27.625C29.3158 0 30.9373 0.600531 32.1328 1.66948C33.3284 2.73843 34 4.18824 34 5.69997V36.0998C33.9997 36.4576 33.8865 36.8082 33.6732 37.111C33.46 37.4138 33.1554 37.6566 32.7946 37.8115C32.4337 37.9663 32.0313 38.0269 31.6337 37.9863C31.236 37.9457 30.8593 37.8054 30.5469 37.5818L26.5625 34.7318L22.5781 37.5818C22.1699 37.8742 21.6555 38.0217 21.1332 37.9961C20.611 37.9705 20.1176 37.7736 19.7476 37.4431L17 34.9864L14.2524 37.4431C13.8826 37.7739 13.3894 37.9711 12.8672 37.9971C12.3449 38.023 11.8303 37.8758 11.4219 37.5837L7.4375 34.7318L3.45312 37.5818C3.14069 37.8054 2.76396 37.9457 2.36632 37.9863C1.96867 38.0269 1.56627 37.9663 1.20545 37.8115C0.844624 37.6566 0.540049 37.4138 0.326788 37.111C0.113526 36.8082 0.000249985 36.4576 0 36.0998V5.69997ZM6.375 3.79998C5.81141 3.79998 5.27091 4.00016 4.8724 4.35647C4.47388 4.71279 4.25 5.19606 4.25 5.69997V32.1478L6.10938 30.8178C6.48627 30.548 6.95469 30.401 7.4375 30.401C7.92031 30.401 8.38873 30.548 8.76562 30.8178L12.5906 33.5538L15.4976 30.9565C15.8961 30.6003 16.4365 30.4002 17 30.4002C17.5635 30.4002 18.1039 30.6003 18.5024 30.9565L21.4073 33.5538L25.2344 30.8178C25.6113 30.548 26.0797 30.401 26.5625 30.401C27.0453 30.401 27.5137 30.548 27.8906 30.8178L29.75 32.1478V5.69997C29.75 5.19606 29.5261 4.71279 29.1276 4.35647C28.7291 4.00016 28.1886 3.79998 27.625 3.79998H6.375ZM8.5 13.2999C8.5 12.796 8.72388 12.3127 9.1224 11.9564C9.52091 11.6001 10.0614 11.3999 10.625 11.3999H23.375C23.9386 11.3999 24.4791 11.6001 24.8776 11.9564C25.2761 12.3127 25.5 12.796 25.5 13.2999C25.5 13.8038 25.2761 14.2871 24.8776 14.6434C24.4791 14.9997 23.9386 15.1999 23.375 15.1999H10.625C10.0614 15.1999 9.52091 14.9997 9.1224 14.6434C8.72388 14.2871 8.5 13.8038 8.5 13.2999ZM10.625 18.9999C10.0614 18.9999 9.52091 19.2001 9.1224 19.5564C8.72388 19.9127 8.5 20.396 8.5 20.8999C8.5 21.4038 8.72388 21.8871 9.1224 22.2434C9.52091 22.5997 10.0614 22.7999 10.625 22.7999H17C17.5636 22.7999 18.1041 22.5997 18.5026 22.2434C18.9011 21.8871 19.125 21.4038 19.125 20.8999C19.125 20.396 18.9011 19.9127 18.5026 19.5564C18.1041 19.2001 17.5636 18.9999 17 18.9999H10.625Z" fill="#BF4413"/>
</svg>
