<svg width="23" height="23" viewBox="0 0 23 23" fill="none" xmlns="http://www.w3.org/2000/svg">
<path fill-rule="evenodd" clip-rule="evenodd" d="M2.55559 8.94462C2.55559 7.25015 3.22872 5.62508 4.42689 4.4269C5.62506 3.22873 7.25013 2.55561 8.94461 2.55561C10.6391 2.55561 12.2641 3.22873 13.4623 4.4269C14.6605 5.62508 15.3336 7.25015 15.3336 8.94462C15.3336 10.6391 14.6605 12.2642 13.4623 13.4623C12.2641 14.6605 10.6391 15.3336 8.94461 15.3336C7.25013 15.3336 5.62506 14.6605 4.42689 13.4623C3.22872 12.2642 2.55559 10.6391 2.55559 8.94462ZM8.94461 2.8186e-07C7.52786 2.6959e-06 6.13137 0.336542 4.87014 0.981904C3.60892 1.62727 2.51903 2.56299 1.69023 3.71202C0.861433 4.86106 0.317432 6.19053 0.103024 7.59096C-0.111384 8.99139 0.0099358 10.4227 0.456992 11.7671C0.904048 13.1115 1.66405 14.3304 2.67442 15.3236C3.68479 16.3167 4.91662 17.0556 6.26848 17.4795C7.62033 17.9034 9.05354 18.0001 10.4501 17.7616C11.8466 17.5232 13.1665 16.9564 14.3012 16.108L20.818 22.6261C21.0575 22.8658 21.3826 23.0006 21.7215 23.0007C22.0605 23.0008 22.3856 22.8663 22.6254 22.6267C22.8652 22.3871 22.9999 22.0621 23.0001 21.7231C23.0002 21.3841 22.8656 21.059 22.626 20.8192L16.1092 14.3024C17.1038 12.9729 17.7087 11.3928 17.8561 9.73899C18.0036 8.08519 17.6878 6.42298 16.9442 4.93846C16.2005 3.45395 15.0583 2.20572 13.6455 1.33352C12.2327 0.461321 10.605 -0.000416468 8.94461 2.8186e-07Z" fill="#FE5A19"/>
</svg>
