<svg width="22" height="23" viewBox="0 0 22 23" fill="none" xmlns="http://www.w3.org/2000/svg">
<path fill-rule="evenodd" clip-rule="evenodd" d="M15.8889 15.3312C17.4851 15.3312 18.8442 16.398 19.3478 17.8865H20.7778C21.1019 17.8865 21.4128 18.0211 21.642 18.2607C21.8712 18.5003 22 18.8252 22 19.1641C22 19.5029 21.8712 19.8279 21.642 20.0675C21.4128 20.3071 21.1019 20.4417 20.7778 20.4417H19.3478C19.0953 21.1897 18.627 21.8375 18.0075 22.2957C17.388 22.7539 16.6478 23 15.8889 23C15.13 23 14.3898 22.7539 13.7703 22.2957C13.1508 21.8375 12.6825 21.1897 12.43 20.4417H1.22222C0.898069 20.4417 0.587192 20.3071 0.357981 20.0675C0.128769 19.8279 0 19.5029 0 19.1641C0 18.8252 0.128769 18.5003 0.357981 18.2607C0.587192 18.0211 0.898069 17.8865 1.22222 17.8865H12.43C12.6829 17.1389 13.1513 16.4916 13.7708 16.034C14.3903 15.5764 15.1303 15.3308 15.8889 15.3312ZM15.8889 17.8865C15.5647 17.8865 15.2539 18.0211 15.0246 18.2607C14.7954 18.5003 14.6667 18.8252 14.6667 19.1641C14.6667 19.5029 14.7954 19.8279 15.0246 20.0675C15.2539 20.3071 15.5647 20.4417 15.8889 20.4417C16.213 20.4417 16.5239 20.3071 16.7531 20.0675C16.9823 19.8279 17.1111 19.5029 17.1111 19.1641C17.1111 18.8252 16.9823 18.5003 16.7531 18.2607C16.5239 18.0211 16.213 17.8865 15.8889 17.8865ZM6.11111 7.66562C6.83099 7.66552 7.53497 7.88693 8.13527 8.30224C8.73558 8.71755 9.20566 9.30839 9.48689 10.0011L9.56878 10.2208H20.7778C21.0893 10.2212 21.3889 10.3459 21.6154 10.5694C21.842 10.793 21.9783 11.0985 21.9965 11.4236C22.0148 11.7486 21.9136 12.0687 21.7137 12.3184C21.5137 12.5682 21.2301 12.7286 20.9208 12.7671L20.7778 12.776H9.57C9.3236 13.5046 8.87232 14.1384 8.27534 14.5942C7.67836 15.0501 6.96353 15.3067 6.2246 15.3304C5.48566 15.3542 4.7571 15.144 4.13445 14.7274C3.51179 14.3108 3.02411 13.7072 2.73533 12.9958L2.65222 12.776H1.22222C0.910703 12.7757 0.611072 12.651 0.38455 12.4274C0.158028 12.2039 0.0217128 11.8984 0.0034563 11.5733C-0.0148002 11.2482 0.08638 10.9281 0.286324 10.6784C0.486267 10.4287 0.769883 10.2682 1.07922 10.2298L1.22222 10.2208H2.65222C2.90508 9.47323 3.37353 8.82602 3.99302 8.36838C4.61251 7.91074 5.35254 7.66521 6.11111 7.66562ZM6.11111 10.2208C5.78696 10.2208 5.47608 10.3554 5.24687 10.595C5.01766 10.8346 4.88889 11.1596 4.88889 11.4984C4.88889 11.8373 5.01766 12.1622 5.24687 12.4018C5.47608 12.6414 5.78696 12.776 6.11111 12.776C6.43526 12.776 6.74614 12.6414 6.97535 12.4018C7.20456 12.1622 7.33333 11.8373 7.33333 11.4984C7.33333 11.1596 7.20456 10.8346 6.97535 10.595C6.74614 10.3554 6.43526 10.2208 6.11111 10.2208ZM15.8889 5.26978e-07C17.4851 5.26978e-07 18.8442 1.0668 19.3478 2.55521H20.7778C21.1019 2.55521 21.4128 2.68981 21.642 2.92941C21.8712 3.16901 22 3.49397 22 3.83281C22 4.17165 21.8712 4.49662 21.642 4.73621C21.4128 4.97581 21.1019 5.11042 20.7778 5.11042H19.3478C19.0953 5.8585 18.627 6.50628 18.0075 6.96449C17.388 7.42269 16.6478 7.66876 15.8889 7.66876C15.13 7.66876 14.3898 7.42269 13.7703 6.96449C13.1508 6.50628 12.6825 5.8585 12.43 5.11042H1.22222C0.898069 5.11042 0.587192 4.97581 0.357981 4.73621C0.128769 4.49662 0 4.17165 0 3.83281C0 3.49397 0.128769 3.16901 0.357981 2.92941C0.587192 2.68981 0.898069 2.55521 1.22222 2.55521H12.43C12.6829 1.80761 13.1513 1.16039 13.7708 0.702754C14.3903 0.245115 15.1303 -0.00041517 15.8889 5.26978e-07ZM15.8889 2.55521C15.5647 2.55521 15.2539 2.68981 15.0246 2.92941C14.7954 3.16901 14.6667 3.49397 14.6667 3.83281C14.6667 4.17165 14.7954 4.49662 15.0246 4.73621C15.2539 4.97581 15.5647 5.11042 15.8889 5.11042C16.213 5.11042 16.5239 4.97581 16.7531 4.73621C16.9823 4.49662 17.1111 4.17165 17.1111 3.83281C17.1111 3.49397 16.9823 3.16901 16.7531 2.92941C16.5239 2.68981 16.213 2.55521 15.8889 2.55521Z" fill="#FE5A19"/>
</svg>
