<svg width="139" height="100" viewBox="0 0 139 100" fill="none" xmlns="http://www.w3.org/2000/svg">
<path d="M69.4993 79.4278C53.1173 79.4278 39.7139 66.0244 39.7139 49.6424C39.7139 33.2604 53.1173 19.8569 69.4993 19.8569C85.8813 19.8569 99.2848 33.2604 99.2848 49.6424C99.2848 66.0244 85.8813 79.4278 69.4993 79.4278ZM69.4993 29.7854C58.578 29.7854 49.6424 38.7211 49.6424 49.6424C49.6424 60.5637 58.578 69.4994 69.4993 69.4994C80.4207 69.4994 89.3563 60.5637 89.3563 49.6424C89.3563 38.7211 80.4207 29.7854 69.4993 29.7854Z" fill="#8F8F8F"/>
<path d="M69.5006 99.2848C37.8287 99.2848 10.029 80.0236 0.299066 51.231C-0.0996885 50.2095 -0.0996885 49.0754 0.299066 48.0539C10.029 19.3605 37.928 0 69.5006 0C101.073 0 128.972 19.2613 138.702 48.0539C139.099 49.0467 139.099 50.2381 138.702 51.231C128.972 79.9243 101.073 99.2848 69.5006 99.2848ZM10.2275 49.6424C19.0639 73.4708 42.6937 89.3564 69.5006 89.3564C96.3075 89.3564 119.838 73.4708 128.774 49.6424C119.937 25.8141 96.3075 9.92848 69.5006 9.92848C42.6937 9.92848 19.1632 25.8141 10.2275 49.6424Z" fill="#8F8F8F"/>
</svg>
