<svg width="21" height="23" viewBox="0 0 21 23" fill="none" xmlns="http://www.w3.org/2000/svg">
<path fill-rule="evenodd" clip-rule="evenodd" d="M10.5 12.65C13.2953 12.65 15.8375 13.4481 17.7077 14.5728C18.641 15.134 19.439 15.7964 20.0153 16.5163C20.5823 17.2235 21 18.07 21 18.975C21 19.9468 20.5205 20.7127 19.8298 21.2589C19.1765 21.7764 18.3143 22.1191 17.3985 22.3583C15.5575 22.8378 13.1005 23 10.5 23C7.8995 23 5.4425 22.839 3.6015 22.3583C2.68567 22.1191 1.8235 21.7764 1.17017 21.2589C0.478333 20.7115 0 19.9468 0 18.975C0 18.07 0.417667 17.2236 0.984667 16.5152C1.561 15.7964 2.35783 15.1351 3.29233 14.5716C5.1625 13.4492 7.70583 12.65 10.5 12.65ZM10.5 14.95C8.13983 14.95 6.0165 15.6285 4.508 16.5358C3.75317 16.9889 3.18383 17.4811 2.81633 17.9411C2.43833 18.4126 2.33333 18.7691 2.33333 18.975C2.33333 19.1153 2.3765 19.2637 2.63083 19.4649C2.92133 19.6949 3.4265 19.9329 4.19883 20.1342C5.7365 20.5367 7.94617 20.7 10.5 20.7C13.055 20.7 15.2635 20.5355 16.8 20.1342C17.5735 19.9329 18.0787 19.6949 18.3692 19.4649C18.6235 19.2637 18.6667 19.1153 18.6667 18.975C18.6667 18.768 18.5617 18.4126 18.1848 17.9411C17.8162 17.4811 17.2468 16.9889 16.492 16.5358C14.9835 15.6273 12.8602 14.95 10.5 14.95ZM10.5 0C12.0471 0 13.5308 0.605802 14.6248 1.68414C15.7188 2.76247 16.3333 4.22501 16.3333 5.75C16.3333 7.27499 15.7188 8.73753 14.6248 9.81586C13.5308 10.8942 12.0471 11.5 10.5 11.5C8.9529 11.5 7.46917 10.8942 6.37521 9.81586C5.28125 8.73753 4.66667 7.27499 4.66667 5.75C4.66667 4.22501 5.28125 2.76247 6.37521 1.68414C7.46917 0.605802 8.9529 0 10.5 0ZM10.5 2.3C10.0404 2.3 9.58525 2.38924 9.16061 2.56262C8.73597 2.73599 8.35013 2.99012 8.02513 3.31048C7.70012 3.63084 7.44231 4.01117 7.26642 4.42974C7.09053 4.84832 7 5.29694 7 5.75C7 6.20306 7.09053 6.65168 7.26642 7.07026C7.44231 7.48883 7.70012 7.86916 8.02513 8.18952C8.35013 8.50988 8.73597 8.76401 9.16061 8.93738C9.58525 9.11076 10.0404 9.2 10.5 9.2C11.4283 9.2 12.3185 8.83652 12.9749 8.18952C13.6313 7.54252 14 6.665 14 5.75C14 4.835 13.6313 3.95748 12.9749 3.31048C12.3185 2.66348 11.4283 2.3 10.5 2.3Z" fill="#FE5A19"/>
</svg>
